#!OML:ASF X:\für Bonn\!DataBase\2005_08_12_Daniel\c3d\Daniel.ASF
:FULLY-SPECIFIED
:DEGREES
1681
root 29.3165 17.3904 -31.7708 -2.31289 -41.0886 368.076
lowerback 9.70682 0.896132 -3.00859
upperback 3.1679 0.753064 -3.13971
thorax -2.14637 0.353523 -1.6442
lowerneck -0.784559 0.919693 -6.38027
upperneck 10.4437 1.70726 -3.18981
head 3.49502 0.442402 0.113102
rclavicle -9.45221e-014 4.57205e-015
rhumerus -28.1355 -11.2098 -85.4519
rradius 18.5566
rwrist 24.4086
rhand -18.3399 15.7455
rfingers 7.12502
rthumb 7.94231 -14.0853
lclavicle -9.45221e-014 4.57205e-015
lhumerus -79.0427 61.1382 15.525
lradius 12.4154
lwrist -74.0764
lhand -14.3788 -7.24283
lfingers 7.12502
lthumb 11.7638 22.4068
rfemur -6.19497 10.8863 22.4866
rtibia 36.2734
rfoot -42.5564 -22.3725
rtoes -5.14918
lfemur -18.9156 -3.63534 -27.6537
ltibia 45.8536
lfoot -24.3833 0.388577
ltoes 1.57721
1682
root 29.3127 17.3851 -31.7415 -2.11633 -40.8112 368.022
lowerback 9.70042 0.884121 -3.05703
upperback 3.11719 0.732634 -3.11815
thorax -2.19644 0.344307 -1.59272
lowerneck -0.900503 0.898423 -6.44026
upperneck 10.3699 1.68938 -3.18652
head 3.49142 0.433581 0.124811
rclavicle 7.63333e-014 4.96962e-015
rhumerus -28.3371 -10.5576 -85.7362
rradius 18.8322
rwrist 23.6004
rhand -18.221 15.8514
rfingers 7.12502
rthumb 8.05701 -13.975
lclavicle 7.63333e-014 4.96962e-015
lhumerus -81.3668 61.2348 13.2629
lradius 12.3537
lwrist -74.86
lhand -14.5261 -7.12493
lfingers 7.12502
lthumb 11.6218 22.5328
rfemur -6.2788 10.8233 22.4731
rtibia 36.3377
rfoot -42.7179 -22.4895
rtoes -5.16915
lfemur -18.7746 -3.74612 -27.689
ltibia 45.5565
lfoot -24.6148 0.188106
ltoes 1.7849
1683
root 29.3101 17.3815 -31.7123 -1.97206 -40.5882 368.041
lowerback 9.71478 0.88735 -3.14085
upperback 3.05772 0.726254 -3.12488
thorax -2.26697 0.342183 -1.55287
lowerneck -1.02064 0.881831 -6.4721
upperneck 10.319 1.67883 -3.19289
head 3.49674 0.428135 0.128764
rclavicle 1.03865e-014 2.38542e-015
rhumerus -28.5523 -9.87006 -86.0395
rradius 19.1243
rwrist 22.7392
rhand -18.0874 15.9525
rfingers 7.12502
rthumb 8.18598 -13.8689
lclavicle 1.03865e-014 2.38542e-015
lhumerus -82.4802 61.0934 12.4095
lradius 12.3794
lwrist -74.8462
lhand -14.6796 -7.15849
lfingers 7.12502
lthumb 11.4737 22.5075
rfemur -6.36459 10.6476 22.3645
rtibia 36.3938
rfoot -42.7033 -22.4781
rtoes -5.47106
lfemur -18.6421 -3.78586 -27.7864
ltibia 45.2655
lfoot -24.8702 -0.00652025
ltoes 1.70429
1684
root 29.3073 17.3768 -31.682 -1.82849 -40.3565 367.975
lowerback 9.78086 0.887824 -3.17721
upperback 3.02622 0.719643 -3.1053
thorax -2.33676 0.339764 -1.51287
lowerneck -1.21917 0.846829 -6.4413
upperneck 10.3441 1.66037 -3.3025
head 3.54516 0.413241 0.0882503
rclavicle -1.78906e-015 2.42517e-014
rhumerus -28.7364 -9.43069 -86.2771
rradius 19.3964
rwrist 22.1266
rhand -17.927 16.0078
rfingers 7.12502
rthumb 8.34081 -13.8075
lclavicle -1.78906e-015 2.42517e-014
lhumerus -84.0019 61.0885 11.0382
lradius 12.3591
lwrist -75.0674
lhand -14.8362 -7.28006
lfingers 7.12502
lthumb 11.3228 22.3943
rfemur -6.39134 10.2675 22.2968
rtibia 36.4187
rfoot -42.5994 -22.3817
rtoes -5.7968
lfemur -18.4711 -3.82026 -27.8205
ltibia 45.0019
lfoot -25.1209 -0.190913
ltoes 1.81176
1685
root 29.3046 17.373 -31.6481 -1.7076 -40.1509 368.018
lowerback 9.77535 0.889565 -3.26414
upperback 2.98546 0.712091 -3.12211
thorax -2.37682 0.336765 -1.48106
lowerneck -1.32799 0.817702 -6.48989
upperneck 10.276 1.63065 -3.29311
head 3.54243 0.399058 0.0995266
rclavicle -4.01048e-014 -1.51076e-014
rhumerus -28.9928 -9.03528 -86.5091
rradius 19.7271
rwrist 21.5362
rhand -17.759 16.1656
rfingers 7.12502
rthumb 8.5029 -13.6432
lclavicle -4.01048e-014 -1.51076e-014
lhumerus -85.0556 61.0042 10.2385
lradius 12.413
lwrist -74.9624
lhand -14.9939 -7.4508
lfingers 7.12502
lthumb 11.1706 22.2318
rfemur -6.4777 9.83123 22.0792
rtibia 36.4421
rfoot -42.4347 -22.1054
rtoes -6.01235
lfemur -18.3556 -3.84561 -27.9485
ltibia 44.7388
lfoot -25.3228 -0.36253
ltoes 1.75039
1686
root 29.3021 17.3699 -31.6127 -1.58609 -39.9176 367.991
lowerback 9.82665 0.886427 -3.2921
upperback 2.93045 0.700683 -3.12371
thorax -2.46252 0.33239 -1.46721
lowerneck -1.41639 0.795718 -6.41213
upperneck 10.3097 1.61624 -3.38747
head 3.57267 0.389158 0.0551578
rclavicle -2.59911e-014 1.63003e-014
rhumerus -29.3299 -8.57642 -86.7438
rradius 20.1206
rwrist 21.0133
rhand -17.6749 16.1465
rfingers 7.12502
rthumb 8.58406 -13.659
lclavicle -2.59911e-014 1.63003e-014
lhumerus -85.3294 60.8121 10.2927
lradius 12.4359
lwrist -74.5728
lhand -14.9892 -7.58142
lfingers 7.12502
lthumb 11.1752 22.101
rfemur -6.51031 9.2091 21.8971
rtibia 36.4468
rfoot -42.1924 -21.8292
rtoes -6.59471
lfemur -18.2029 -3.93257 -28.0361
ltibia 44.4943
lfoot -25.5011 -0.488869
ltoes 1.60543
1687
root 29.2977 17.3692 -31.5737 -1.51162 -39.7124 367.988
lowerback 9.87145 0.872903 -3.32473
upperback 2.89908 0.675306 -3.14319
thorax -2.51994 0.320568 -1.46727
lowerneck -1.53066 0.782009 -6.35028
upperneck 10.3294 1.61458 -3.47432
head 3.6027 0.385454 0.016543
rclavicle -5.30755e-014 1.64991e-014
rhumerus -29.6472 -8.32726 -86.9504
rradius 20.4721
rwrist 20.5958
rhand -17.5486 16.1961
rfingers 7.12502
rthumb 8.706 -13.6043
lclavicle -5.30755e-014 1.64991e-014
lhumerus -85.6821 60.6724 10.2685
lradius 12.5265
lwrist -74.0543
lhand -14.9234 -7.80502
lfingers 7.12502
lthumb 11.2387 21.8739
rfemur -6.51586 8.37544 21.6428
rtibia 36.4436
rfoot -41.8197 -21.3496
rtoes -7.10143
lfemur -18.0056 -3.95363 -28.1433
ltibia 44.2505
lfoot -25.6378 -0.619734
ltoes 1.64411
1688
root 29.2934 17.3695 -31.5335 -1.41577 -39.5046 367.963
lowerback 9.88953 0.856745 -3.31943
upperback 2.87188 0.652177 -3.15778
thorax -2.55797 0.309716 -1.48327
lowerneck -1.55368 0.771885 -6.31457
upperneck 10.2963 1.60729 -3.55155
head 3.59649 0.381284 -0.0151487
rclavicle -1.30204e-013 1.25234e-014
rhumerus -29.9575 -8.27072 -87.0921
rradius 20.7833
rwrist 20.4016
rhand -17.4928 16.2568
rfingers 7.12502
rthumb 8.75985 -13.5414
lclavicle -1.30204e-013 1.25234e-014
lhumerus -84.9972 60.4286 11.4603
lradius 12.6793
lwrist -73.1509
lhand -14.6498 -7.93625
lfingers 7.12502
lthumb 11.5025 21.7282
rfemur -6.52466 7.36477 21.3563
rtibia 36.4244
rfoot -41.3461 -20.7984
rtoes -7.8313
lfemur -17.8132 -4.00725 -28.2339
ltibia 44.0133
lfoot -25.8006 -0.681319
ltoes 1.37213
1689
root 29.2892 17.3684 -31.4918 -1.36838 -39.2788 367.96
lowerback 9.92859 0.824285 -3.33853
upperback 2.86111 0.604277 -3.17142
thorax -2.59078 0.286339 -1.48174
lowerneck -1.63779 0.762558 -6.2838
upperneck 10.3476 1.60868 -3.60884
head 3.6315 0.377999 -0.038874
rclavicle -1.02772e-013 2.52457e-014
rhumerus -30.2031 -8.12774 -87.2771
rradius 21.0396
rwrist 20.0708
rhand -17.4213 16.245
rfingers 7.12502
rthumb 8.82876 -13.5503
lclavicle -1.02772e-013 2.52457e-014
lhumerus -83.8336 60.1634 13.1746
lradius 12.7935
lwrist -71.9681
lhand -14.3631 -7.98571
lfingers 7.12502
lthumb 11.779 21.6631
rfemur -6.46878 6.22516 21.0264
rtibia 36.3815
rfoot -40.8667 -20.0821
rtoes -8.61199
lfemur -17.5963 -4.1216 -28.3437
ltibia 43.7965
lfoot -25.8799 -0.75803
ltoes 1.36306
1690
root 29.2847 17.3685 -31.448 -1.32453 -39.0814 367.98
lowerback 9.93259 0.799679 -3.36296
upperback 2.85493 0.568282 -3.1893
thorax -2.59948 0.268672 -1.48242
lowerneck -1.69123 0.763364 -6.27777
upperneck 10.3565 1.62017 -3.66667
head 3.64548 0.380662 -0.0583059
rclavicle -8.17999e-014 2.34566e-014
rhumerus -30.4481 -8.06737 -87.4065
rradius 21.2896
rwrist 19.9373
rhand -17.3113 16.2354
rfingers 7.12502
rthumb 8.935 -13.5554
lclavicle -8.17999e-014 2.34566e-014
lhumerus -82.3518 59.8556 15.267
lradius 12.9488
lwrist -70.7504
lhand -13.9641 -7.99239
lfingers 7.12502
lthumb 12.1637 21.634
rfemur -6.42339 5.06101 20.6614
rtibia 36.3411
rfoot -40.3531 -19.3261
rtoes -9.25322
lfemur -17.393 -4.24236 -28.4749
ltibia 43.5977
lfoot -26.0205 -0.784627
ltoes 1.38077
1691
root 29.2814 17.3645 -31.4032 -1.29451 -38.9132 367.938
lowerback 9.97323 0.778775 -3.30233
upperback 2.86201 0.543574 -3.21704
thorax -2.61379 0.256333 -1.54286
lowerneck -1.6817 0.75197 -6.2468
upperneck 10.3361 1.60539 -3.70541
head 3.63715 0.373991 -0.0769749
rclavicle -3.10104e-014 1.76918e-014
rhumerus -30.6865 -8.14662 -87.5374
rradius 21.4983
rwrist 19.8661
rhand -17.305 16.1733
rfingers 7.12502
rthumb 8.94101 -13.6172
lclavicle -3.10104e-014 1.76918e-014
lhumerus -80.7151 59.5293 17.5214
lradius 13.15
lwrist -69.5454
lhand -13.4914 -7.94437
lfingers 7.12502
lthumb 12.6195 21.6544
rfemur -6.30408 4.09783 20.3707
rtibia 36.3006
rfoot -40.0035 -18.6064
rtoes -9.69301
lfemur -17.1578 -4.36367 -28.5665
ltibia 43.4357
lfoot -26.169 -0.742258
ltoes 1.4284
1692
root 29.2786 17.3609 -31.358 -1.30915 -38.7771 367.984
lowerback 10.0082 0.772789 -3.32672
upperback 2.85835 0.530146 -3.23966
thorax -2.63688 0.249868 -1.55167
lowerneck -1.62553 0.739687 -6.2337
upperneck 10.3161 1.58976 -3.7883
head 3.62044 0.36472 -0.107435
rclavicle 1.2921e-015 -1.09332e-014
rhumerus -30.9035 -8.19521 -87.6247
rradius 21.6341
rwrist 19.8171
rhand -17.369 16.264
rfingers 7.12502
rthumb 8.87928 -13.5292
lclavicle 1.2921e-015 -1.09332e-014
lhumerus -78.5584 59.089 20.4048
lradius 13.3358
lwrist -68.2026
lhand -13.0925 -7.7626
lfingers 7.12502
lthumb 13.004 21.8121
rfemur -6.20681 3.19744 20.0088
rtibia 36.2967
rfoot -39.6683 -17.8864
rtoes -9.98201
lfemur -16.9317 -4.40486 -28.719
ltibia 43.2874
lfoot -26.3072 -0.811634
ltoes 1.70839
1693
root 29.2774 17.3548 -31.3129 -1.2708 -38.6312 367.972
lowerback 10.0337 0.736341 -3.30933
upperback 2.83665 0.481238 -3.24773
thorax -2.67343 0.226075 -1.56447
lowerneck -1.58186 0.758309 -6.25841
upperneck 10.3167 1.61375 -3.80998
head 3.6121 0.375081 -0.109747
rclavicle 1.00883e-014 -9.93923e-016
rhumerus -31.1189 -8.24126 -87.6965
rradius 21.7146
rwrist 19.8038
rhand -17.3641 16.4332
rfingers 7.12502
rthumb 8.88405 -13.3598
lclavicle 1.00883e-014 -9.93923e-016
lhumerus -76.9265 58.7138 22.6359
lradius 13.4541
lwrist -67.2799
lhand -12.7383 -7.66361
lfingers 7.12502
lthumb 13.3455 21.889
rfemur -6.17863 2.30491 19.6847
rtibia 36.3504
rfoot -39.2922 -17.1045
rtoes -10.1154
lfemur -16.7361 -4.52235 -28.8262
ltibia 43.1514
lfoot -26.4859 -0.834531
ltoes 1.93076
1694
root 29.2746 17.3517 -31.2652 -1.2895 -38.5208 367.977
lowerback 10.0729 0.709679 -3.26749
upperback 2.87158 0.447408 -3.28787
thorax -2.6582 0.208628 -1.62581
lowerneck -1.59294 0.753752 -6.22741
upperneck 10.2966 1.61342 -3.89001
head 3.60815 0.373496 -0.141405
rclavicle 8.06569e-014 -2.60408e-014
rhumerus -31.242 -8.46182 -87.7625
rradius 21.7589
rwrist 19.9241
rhand -17.3734 16.5801
rfingers 7.12502
rthumb 8.87507 -13.2133
lclavicle 8.06569e-014 -2.60408e-014
lhumerus -74.5416 58.2608 25.6563
lradius 13.6042
lwrist -66.1224
lhand -12.3201 -7.35822
lfingers 7.12502
lthumb 13.7485 22.1676
rfemur -6.11318 1.3886 19.3276
rtibia 36.462
rfoot -38.9763 -16.2525
rtoes -10.1513
lfemur -16.4739 -4.61855 -28.9411
ltibia 43.0133
lfoot -26.6856 -0.916258
ltoes 2.13112
1695
root 29.2718 17.3466 -31.2173 -1.29838 -38.418 368.006
lowerback 10.1281 0.690863 -3.26607
upperback 2.83224 0.416632 -3.32204
thorax -2.72945 0.194109 -1.65959
lowerneck -1.483 0.755493 -6.22084
upperneck 10.2973 1.60785 -3.91849
head 3.58761 0.370928 -0.152731
rclavicle 2.96686e-014 1.74931e-014
rhumerus -31.5155 -8.74508 -87.762
rradius 21.7842
rwrist 20.1154
rhand -17.4823 16.8328
rfingers 7.12502
rthumb 8.76996 -12.965
lclavicle 2.96686e-014 1.74931e-014
lhumerus -72.3113 57.6373 28.5289
lradius 13.7245
lwrist -65.2593
lhand -12.0433 -7.1681
lfingers 7.12502
lthumb 14.0153 22.3394
rfemur -6.13271 0.574071 18.9708
rtibia 36.6661
rfoot -38.6701 -15.476
rtoes -10.2346
lfemur -16.2207 -4.7407 -29.0891
ltibia 42.8532
lfoot -26.8216 -0.912448
ltoes 2.43273
